<?xml version="1.0" encoding="utf-8"?>
<!-- Generator: Adobe Illustrator 16.0.0, SVG Export Plug-In . SVG Version: 6.00 Build 0)  -->
<!DOCTYPE svg PUBLIC "-//W3C//DTD SVG 1.1//EN" "http://www.w3.org/Graphics/SVG/1.1/DTD/svg11.dtd">
<svg version="1.1" id="Layer_1" xmlns="http://www.w3.org/2000/svg" xmlns:xlink="http://www.w3.org/1999/xlink" x="0px" y="0px"
	 width="16px" height="16px" viewBox="0 0 16 16" enable-background="new 0 0 16 16" xml:space="preserve">
<path fill-rule="evenodd" clip-rule="evenodd" fill="#4276A4" d="M-351.396-357.597c0,0-0.586-2.635,2.095-2.903
	c0,0,2.537-0.103,2.095,2.903c0,0,0.533-0.091,0,0.764c0,0-0.203,0.254-0.322,0.153c0,0-0.026,1.207-0.645,1.681v0.306h0.483
	l0.161,0.305c0,0,1.23,1.02,2.417,0.917c0,0,1.485,0.112,1.451,2.292l0.161,1.681h-5.157c0,0,1.817-1.953,0.967-4.736
	c0,0,0.091-0.363-0.322-0.305c0,0-0.446,0.449-0.967,0.611v0.153c0,0,0.484,0.286,0.645,0.917c0,0-0.466-0.527-0.645-0.305
	c0,0,0.691,2.337,0.161,3.667h-0.806c0,0-0.374-1.342,0.161-3.667c0,0-0.028-0.246-0.483,0.305c0,0-0.049-0.565,0.645-0.917v-0.153
	c0,0-0.856-0.291-0.967-0.611c0,0-0.247-0.145-0.322,0.305l-0.161,0.153c0,0-0.247,2.237,0.967,4.583h-4.673
	c0.044-1.235-0.232-2.504,0.322-3.208c0,0,0.499-0.793,1.289-0.611c0,0,0.626-0.062,0.967-0.306l1.128-0.764
	c-0.098-0.074-0.001-0.317,0.481-0.304c0.002-0.001,0.002-0.307,0.002-0.307s-0.653-0.214-0.806-1.528c0,0-0.346,0.222-0.483-0.611
	C-351.59-357.335-351.733-357.698-351.396-357.597z"/>
<g>
	<g>
		<path fill-rule="evenodd" clip-rule="evenodd" fill="#4276A4" d="M12.267,0h-2.134v2.133h2.134V0z M5.867,0H3.733v2.133h2.133V0z
			 M13.333,1.067V3.2H9.066V1.067H6.933V3.2H2.667V1.067H0.533V16h14.934V1.067H13.333z M14.399,14.934H1.6V4.267h12.799V14.934z"/>
	</g>
</g>
</svg>
